<svg width="4009" height="418" viewBox="0 0 4009 418" fill="none" xmlns="http://www.w3.org/2000/svg">
<path d="M3923.47 0H4008.03V161.371H3963.97L3923.47 120.284V0ZM3893.11 38.7053V133.384L4008.03 248.905V417.422H3923.47V284.037L3807.95 169.112V85.1516H3679.93V417.422H3595.37V0H3855C3875.84 0.595458 3893.11 17.2685 3893.11 38.7053Z" fill="#292929"/>
<path d="M3466.9 0.595459C3506.8 0.595459 3538.36 32.1552 3538.36 72.0514V345.966C3538.36 384.076 3507.99 415.635 3469.28 417.422H3194.18C3156.07 415.635 3125.7 384.076 3125.7 345.966V72.0514C3125.7 32.1552 3157.26 0.595459 3197.16 0.595459H3466.9ZM3231.69 332.27V250.691L3347.21 135.766V85.1517H3222.76C3216.21 85.1517 3210.26 91.1063 3210.26 97.6565V319.765C3210.26 326.911 3216.21 332.27 3222.76 332.27H3231.69ZM3453.21 319.765V97.6565C3453.21 94.0836 3452.01 91.1063 3449.63 88.7245C3447.85 86.3426 3444.27 85.1517 3441.3 85.1517H3432.36V170.899L3316.84 285.824V332.27H3441.3C3444.27 332.27 3447.85 331.079 3449.63 328.697C3452.01 326.315 3453.21 323.338 3453.21 319.765Z" fill="#292929"/>
<path d="M2960.06 85.1517H2748.67V108.97H2824.29L2939.22 223.895H3076.77V351.92C3076.77 387.053 3049.38 415.635 3014.24 416.826H2745.09L2664.11 335.843V278.083L2695.07 246.523L2780.82 332.27H2986.26C2989.24 332.27 2992.21 329.888 2992.21 326.315V309.047H2904.08L2789.16 193.526H2664.11V45.8509L2704.6 0.595459H2995.19L3076.77 82.1743V139.339L3045.8 170.899L2960.06 85.1517Z" fill="#292929"/>
<path d="M2565.87 0C2580.75 0 2595.05 5.95465 2605.76 16.673C2616.48 27.3914 2622.44 42.2781 2622.44 57.1647V253.669C2622.44 285.228 2596.83 310.833 2565.87 310.833H2504.54L2578.37 384.076V417.422H2490.84L2446.18 372.166V310.833L2330.66 195.313H2209.78V0H2565.87ZM2537.29 211.986V98.8474C2537.29 95.2746 2536.09 91.7018 2533.71 89.3199C2530.74 86.9381 2527.76 85.1516 2524.19 85.1516H2294.34V110.161H2366.39L2481.31 225.682H2524.19C2527.76 225.682 2530.74 223.895 2533.71 221.513C2536.09 219.132 2537.29 215.559 2537.29 211.986ZM2209.78 248.905H2253.84L2294.34 289.992V417.422H2209.78V248.905Z" fill="#292929"/>
<path d="M1812.78 0.595457L2172.44 0V85.1516H1851.48C1847.91 85.1516 1844.93 88.129 1844.34 91.7018V133.384L1876.49 165.54H2087.88V250.096H1840.76L1759.78 168.517V53.592C1759.78 24.4141 1783.6 0.595457 1812.78 0.595457ZM1790.74 246.523L1876.49 332.27H2172.44V416.826H1840.76L1759.78 335.843V278.083L1790.74 246.523Z" fill="#292929"/>
<path d="M1330.41 298.924L1463.8 165.54H1638.27V216.154L1603.73 250.096H1498.93L1414.97 334.056V416.826H1330.41V298.924ZM1383.41 0H1743.07V85.1516H1422.11C1418.54 85.1516 1415.56 88.129 1414.97 91.7018V172.09L1374.48 213.177H1330.41V53.592C1330.41 24.4141 1354.23 0.595458 1383.41 0Z" fill="#292929"/>
<path d="M896.279 298.924L1029.66 165.54H1204.14V216.154L1169.6 250.096H1064.8L980.835 334.056V416.826H896.279V298.924ZM949.276 0H1308.94V85.1516H987.981C984.408 85.1516 981.431 88.129 980.835 91.7018V172.09L940.344 213.177H896.279V53.592C896.279 24.4141 920.098 0.595458 949.276 0Z" fill="#292929"/>
<path d="M501.657 0.595457L861.318 0V85.1516H540.362C536.789 85.1516 533.812 88.129 533.216 91.7018V133.384L565.372 165.54H776.762V250.096H529.644L448.66 168.517V53.592C448.66 24.4141 472.479 0.595457 501.657 0.595457ZM479.624 246.523L565.372 332.27H861.318V416.826H529.644L448.66 335.843V278.083L479.624 246.523Z" fill="#292929"/>
<path d="M412.658 85.7471H361.448V266.769H412.658V351.92H268.555L203.054 416.826H0V332.27H167.921L233.423 266.769H276.296V126.239L316.788 85.7471H71.4559V50.6146L121.475 0.595459H412.658V85.7471Z" fill="#292929"/>
</svg>
